<svg width="340" height="351" viewBox="0 0 340 351" fill="none" xmlns="http://www.w3.org/2000/svg">
<circle cx="170" cy="181" r="170" fill="white"/>
<path fill-rule="evenodd" clip-rule="evenodd" d="M338.371 157.371C339.31 164.124 339.853 171.004 339.974 177.986L26.8907 272.796C23.1734 267.013 19.797 260.99 16.79 254.755L338.371 157.371Z" fill="black"/>
<path d="M180.598 86.7L148.08 247H105.028L72.5102 86.7H105.486L118.081 160.896L125.867 208.986H127.241L135.027 160.896L147.622 86.7H180.598Z" fill="#FF00B8"/>
<path d="M205.252 86.7H260.212V114.18H216.244L215.557 115.554L252.197 182.422C259.677 195.857 263.418 206.085 263.418 213.108C263.418 228.527 258.303 239.825 248.075 247H187.39V220.436H234.793L235.48 219.062L194.26 145.095C188.306 134.408 185.329 125.706 185.329 118.989C185.329 103.112 191.97 92.3487 205.252 86.7Z" fill="#00F083"/>
<path fill-rule="evenodd" clip-rule="evenodd" d="M328.606 119.684C331.021 125.927 333.078 132.348 334.752 138.922L9.57738 237.395C7.35876 231.083 5.50208 224.601 4.03223 217.974L328.606 119.684Z" fill="black"/>
<path fill-rule="evenodd" clip-rule="evenodd" d="M97.6693 210.721L93.6367 190.842L121.561 182.386L124.818 202.5L97.6693 210.721ZM243.505 166.558L211.605 176.218L201.544 158.165L233.589 148.461L243.505 166.558ZM163.781 169.601L159.221 192.082L128.471 201.394L132.063 179.206L163.781 169.601Z" fill="white"/>
<path fill-rule="evenodd" clip-rule="evenodd" d="M112.075 247.003H105.028L101.403 229.135L154.997 212.905L150.437 235.386L112.075 247.003ZM252.692 183.32C256.591 190.406 259.427 196.581 261.2 201.844L230.982 210.995L220.921 192.941L252.692 183.32ZM199.795 220.439L187.389 224.196V220.439H199.795Z" fill="white"/>
</svg>
