<svg width="78" height="61" viewBox="0 0 78 61" fill="none" xmlns="http://www.w3.org/2000/svg">
<path d="M1.23926 36.8852H21.6451V35.0742H52.54V37.8383H77.9043V39.268H1.23926V36.8852Z" fill="white"/>
<path d="M40.9513 16.5273L34.7498 47.0845H26.5394L20.3379 16.5273H26.6267L29.0287 30.671L30.5136 39.8381H30.7756L32.2604 30.671L34.6624 16.5273H40.9513Z" fill="#FF00B8" fill-opacity="0.53"/>
<path d="M45.653 16.5273H56.1344V21.7657H47.7493L47.6183 22.0276L54.6058 34.7743C56.0325 37.3354 56.7458 39.2851 56.7458 40.6239C56.7458 43.5631 55.7705 45.7168 53.8197 47.0845H42.2466V42.0208H51.2867L51.4178 41.7588L43.5567 27.6589C42.4213 25.6217 41.8535 23.9629 41.8535 22.6824C41.8535 19.6559 43.12 17.6041 45.653 16.5273Z" fill="#00F083" fill-opacity="0.53"/>
<path d="M3.5983 31.8298H6.58556V33.7978H2.2744C1.52758 33.0965 0.961809 32.2088 0.577086 31.1342C0.192363 30.0597 0 28.9569 0 27.8259C0 26.6835 0.214992 25.5864 0.644978 24.5346C1.07496 23.4827 1.71428 22.6117 2.56294 21.9219H6.58556V23.9578H3.5983C3.29278 24.3083 3.02688 24.8739 2.80056 25.6543C2.58558 26.4347 2.47807 27.1812 2.47807 27.8938C2.47807 28.6063 2.58558 29.3528 2.80056 30.1332C3.02688 30.9137 3.29278 31.4792 3.5983 31.8298Z" fill="white"/>
<path d="M12.7402 33.7983H9.04008C7.90855 32.7465 7.34277 31.3101 7.34277 29.4891C7.34277 28.5729 7.46725 27.7755 7.71618 27.0969C7.97644 26.4183 8.3838 25.7624 8.93824 25.1289H12.91C13.4984 25.8075 13.9001 26.4692 14.115 27.1139C14.33 27.7473 14.4375 28.539 14.4375 29.4891C14.4375 31.3101 13.8718 32.7465 12.7402 33.7983ZM10.2452 32.0169H11.5351C11.9425 31.2253 12.1462 30.3261 12.1462 29.3194C12.1462 28.3127 11.9368 27.5098 11.5182 26.9103H10.2452C9.83782 27.4871 9.63414 28.3072 9.63414 29.3703C9.63414 30.4222 9.83782 31.3044 10.2452 32.0169Z" fill="white"/>
<path d="M19.4204 25.1289H20.6255L21.0498 25.7227C21.2874 25.5079 21.5138 25.3552 21.7287 25.2646C21.9551 25.1741 22.2888 25.1289 22.7301 25.1289H24.6141C25.1121 25.7624 25.4515 26.3956 25.6325 27.0291C25.8135 27.6625 25.9041 28.4542 25.9041 29.4042V33.7983H23.6467V29.2346C23.6467 28.194 23.4882 27.4193 23.1714 26.9103H21.542C21.7909 27.3966 21.9154 28.0582 21.9154 28.8953V33.7983H19.658V29.2346C19.658 28.16 19.511 27.3853 19.2167 26.9103H17.9098V33.7983H15.6523V25.1289H17.4175L17.7231 25.7397C17.972 25.5134 18.204 25.3552 18.419 25.2646C18.6453 25.1741 18.9791 25.1289 19.4204 25.1289Z" fill="white"/>
<path d="M27.2881 25.1289H29.1042L29.3588 25.7397C29.6077 25.5134 29.8396 25.3552 30.0547 25.2646C30.2809 25.1741 30.6148 25.1289 31.0561 25.1289H32.5837C33.0589 25.5927 33.4323 26.192 33.7039 26.9273C33.9755 27.6625 34.1113 28.4711 34.1113 29.3533C34.1113 31.2422 33.5454 32.7238 32.414 33.7983H30.9713C30.3715 33.7983 29.8962 33.6399 29.5455 33.3233V36.3432H27.2881V25.1289ZM29.5455 32.017H31.1749C31.5935 31.3044 31.8029 30.4391 31.8029 29.4212C31.8029 28.4033 31.5878 27.5662 31.158 26.9103H29.5455V32.017Z" fill="white"/>
<path d="M43.4255 33.7978L40.2515 27.2321L40.1667 27.266L40.2685 29.268V33.7978H38.1299V21.9219H39.8442L42.9672 28.7421L43.0521 28.7081L42.8654 26.6214V21.9219H45.004V33.7978H43.4255Z" fill="white"/>
<path d="M50.6387 29.8793H48.8226C48.5849 30.1734 48.4661 30.5409 48.4661 30.982C48.4661 31.4232 48.5905 31.7682 48.8395 32.0169H50.6387V29.8793ZM46.9895 25.1289H51.1988C51.8777 25.5361 52.3246 26.0054 52.5397 26.5371C52.7546 27.0573 52.8622 27.7698 52.8622 28.6747V31.2196C52.8622 32.1584 52.8847 33.0179 52.9301 33.7983H50.9951L50.6896 33.1876C50.2483 33.5948 49.6258 33.7983 48.8226 33.7983H47.7533C46.7913 33.1649 46.3105 32.2545 46.3105 31.0669C46.3105 29.868 46.8028 28.9235 47.7872 28.2336H49.3827C49.824 28.2336 50.2369 28.3693 50.6217 28.6408V27.7925C50.6217 27.3514 50.4293 27.0573 50.0446 26.9103H46.9895V25.1289Z" fill="white"/>
<path d="M54.5667 30.0139V26.9091H53.3955V25.1278H54.5667V22.7695H56.8241V25.1278H58.2159V26.9091H56.8241V30.5568C56.8241 31.2466 56.9429 31.7331 57.1805 32.0158H58.2159V33.7972H55.8057C55.2059 33.243 54.8439 32.6435 54.7194 31.9988C54.6176 31.4559 54.5667 30.7943 54.5667 30.0139Z" fill="white"/>
<path d="M59.3447 33.7978V25.1284H61.5852V33.7978H59.3447ZM59.3447 21.9219H61.5852V24.2122H59.3447V21.9219Z" fill="white"/>
<path d="M68.2012 33.7983H64.501C63.3695 32.7465 62.8037 31.3101 62.8037 29.4891C62.8037 28.5729 62.9282 27.7755 63.1771 27.0969C63.4374 26.4183 63.8448 25.7624 64.3992 25.1289H68.3709C68.9594 25.8075 69.361 26.4692 69.576 27.1139C69.7911 27.7473 69.8985 28.539 69.8985 29.4891C69.8985 31.3101 69.3328 32.7465 68.2012 33.7983ZM65.7061 32.0169H66.9961C67.4034 31.2253 67.6071 30.3261 67.6071 29.3194C67.6071 28.3127 67.3979 27.5098 66.9791 26.9103H65.7061C65.2988 27.4871 65.0951 28.3072 65.0951 29.3703C65.0951 30.4222 65.2988 31.3044 65.7061 32.0169Z" fill="white"/>
<path d="M74.8813 25.1289H76.6805C77.1784 25.7624 77.5179 26.3956 77.6988 27.0291C77.88 27.6625 77.9704 28.4542 77.9704 29.4042V33.7983H75.713V29.2346C75.713 28.16 75.566 27.3853 75.2717 26.9103H73.3707V33.7983H71.1133V25.1289H72.8785L73.184 25.7397C73.4331 25.5134 73.665 25.3552 73.8799 25.2646C74.1063 25.1741 74.44 25.1289 74.8813 25.1289Z" fill="white"/>
</svg>
