<svg width="431" height="372" viewBox="0 0 431 372" fill="none" xmlns="http://www.w3.org/2000/svg">
<circle cx="214.365" cy="202" r="170" fill="white"/>
<path d="M224.598 86.7L192.08 247H149.028L116.51 86.7H149.486L162.081 160.896L169.867 208.986H171.241L179.027 160.896L191.622 86.7H224.598Z" fill="#FF00B8"/>
<path d="M249.252 86.7H304.212V114.18H260.244L259.557 115.554L296.197 182.422C303.677 195.857 307.418 206.085 307.418 213.108C307.418 228.527 302.303 239.825 292.075 247H231.39V220.436H278.793L279.48 219.062L238.26 145.095C232.306 134.408 229.329 125.706 229.329 118.989C229.329 103.112 235.97 92.3487 249.252 86.7Z" fill="#00F083"/>
<rect x="424.663" y="103.922" width="20.1944" height="412.026" transform="rotate(73.1522 424.663 103.922)" fill="black"/>
<path fill-rule="evenodd" clip-rule="evenodd" d="M141.669 210.721L137.637 190.842L165.561 182.386L168.818 202.5L141.669 210.721ZM287.505 166.558L255.605 176.218L245.544 158.165L277.589 148.461L287.505 166.558ZM207.781 169.601L203.221 192.082L172.471 201.394L176.063 179.206L207.781 169.601Z" fill="white"/>
<rect x="393.021" y="154.148" width="20.1944" height="410.647" transform="rotate(73.1522 393.021 154.148)" fill="black"/>
<path fill-rule="evenodd" clip-rule="evenodd" d="M156.075 247.003H149.028L145.403 229.135L198.997 212.905L194.437 235.386L156.075 247.003ZM296.692 183.32C300.591 190.406 303.427 196.581 305.2 201.844L274.982 210.995L264.921 192.941L296.692 183.32ZM243.795 220.439L231.389 224.196V220.439H243.795Z" fill="white"/>
<path d="M27.1452 332.56H42.9852V343H20.1252C16.1652 339.28 13.1652 334.57 11.1252 328.87C9.08523 323.17 8.06523 317.32 8.06523 311.32C8.06523 305.26 9.20523 299.44 11.4852 293.86C13.7652 288.28 17.1552 283.66 21.6552 280H42.9852V290.8H27.1452C25.5252 292.66 24.1152 295.66 22.9152 299.8C21.7752 303.94 21.2052 307.9 21.2052 311.68C21.2052 315.46 21.7752 319.42 22.9152 323.56C24.1152 327.7 25.5252 330.7 27.1452 332.56ZM75.6187 343H55.9987C49.9987 337.42 46.9987 329.8 46.9987 320.14C46.9987 315.28 47.6587 311.05 48.9787 307.45C50.3587 303.85 52.5187 300.37 55.4587 297.01H76.5187C79.6387 300.61 81.7687 304.12 82.9087 307.54C84.0487 310.9 84.6187 315.1 84.6187 320.14C84.6187 329.8 81.6187 337.42 75.6187 343ZM62.3887 333.55H69.2287C71.3887 329.35 72.4687 324.58 72.4687 319.24C72.4687 313.9 71.3587 309.64 69.1387 306.46H62.3887C60.2287 309.52 59.1487 313.87 59.1487 319.51C59.1487 325.09 60.2287 329.77 62.3887 333.55ZM111.041 297.01H117.431L119.681 300.16C120.941 299.02 122.141 298.21 123.281 297.73C124.481 297.25 126.251 297.01 128.591 297.01H138.581C141.221 300.37 143.021 303.73 143.981 307.09C144.941 310.45 145.421 314.65 145.421 319.69V343H133.451V318.79C133.451 313.27 132.611 309.16 130.931 306.46H122.291C123.611 309.04 124.271 312.55 124.271 316.99V343H112.301V318.79C112.301 313.09 111.521 308.98 109.961 306.46H103.031V343H91.0614V297.01H100.421L102.041 300.25C103.361 299.05 104.591 298.21 105.731 297.73C106.931 297.25 108.701 297.01 111.041 297.01ZM152.761 297.01H162.391L163.741 300.25C165.061 299.05 166.291 298.21 167.431 297.73C168.631 297.25 170.401 297.01 172.741 297.01H180.841C183.361 299.47 185.341 302.65 186.781 306.55C188.221 310.45 188.941 314.74 188.941 319.42C188.941 329.44 185.941 337.3 179.941 343H172.291C169.111 343 166.591 342.16 164.731 340.48V356.5H152.761V297.01ZM164.731 333.55H173.371C175.591 329.77 176.701 325.18 176.701 319.78C176.701 314.38 175.561 309.94 173.281 306.46H164.731V333.55ZM238.332 343L221.502 308.17L221.052 308.35L221.592 318.97V343H210.252V280H219.342L235.902 316.18L236.352 316L235.362 304.93V280H246.702V343H238.332ZM276.58 322.21H266.95C265.69 323.77 265.06 325.72 265.06 328.06C265.06 330.4 265.72 332.23 267.04 333.55H276.58V322.21ZM257.23 297.01H279.55C283.15 299.17 285.52 301.66 286.66 304.48C287.8 307.24 288.37 311.02 288.37 315.82V329.32C288.37 334.3 288.49 338.86 288.73 343H278.47L276.85 339.76C274.51 341.92 271.21 343 266.95 343H261.28C256.18 339.64 253.63 334.81 253.63 328.51C253.63 322.15 256.24 317.14 261.46 313.48H269.92C272.26 313.48 274.45 314.2 276.49 315.64V311.14C276.49 308.8 275.47 307.24 273.43 306.46H257.23V297.01ZM297.404 322.93V306.46H291.194V297.01H297.404V284.5H309.374V297.01H316.754V306.46H309.374V325.81C309.374 329.47 310.004 332.05 311.264 333.55H316.754V343H303.974C300.794 340.06 298.874 336.88 298.214 333.46C297.674 330.58 297.404 327.07 297.404 322.93ZM322.741 343V297.01H334.621V343H322.741ZM322.741 280H334.621V292.15H322.741V280ZM369.701 343H350.081C344.081 337.42 341.081 329.8 341.081 320.14C341.081 315.28 341.741 311.05 343.061 307.45C344.441 303.85 346.601 300.37 349.541 297.01H370.601C373.721 300.61 375.851 304.12 376.991 307.54C378.131 310.9 378.701 315.1 378.701 320.14C378.701 329.8 375.701 337.42 369.701 343ZM356.471 333.55H363.311C365.471 329.35 366.551 324.58 366.551 319.24C366.551 313.9 365.441 309.64 363.221 306.46H356.471C354.311 309.52 353.231 313.87 353.231 319.51C353.231 325.09 354.311 329.77 356.471 333.55ZM405.123 297.01H414.663C417.303 300.37 419.103 303.73 420.063 307.09C421.023 310.45 421.503 314.65 421.503 319.69V343H409.533V318.79C409.533 313.09 408.753 308.98 407.193 306.46H397.113V343H385.143V297.01H394.503L396.123 300.25C397.443 299.05 398.673 298.21 399.813 297.73C401.013 297.25 402.783 297.01 405.123 297.01Z" fill="white"/>
<path fill-rule="evenodd" clip-rule="evenodd" d="M83.7955 310.874C80.0929 306.439 76.6121 301.812 73.3701 297.01H76.5163C79.6363 300.61 81.7663 304.12 82.9063 307.54C83.2565 308.572 83.5529 309.684 83.7955 310.874ZM103.029 330.474C98.856 326.855 94.861 323.036 91.059 319.031V297.01H100.419L102.039 300.25C103.359 299.05 104.589 298.21 105.729 297.73C106.929 297.25 108.699 297.01 111.039 297.01H117.429L119.679 300.16C120.939 299.02 122.139 298.21 123.279 297.73C124.479 297.25 126.249 297.01 128.589 297.01H138.579C141.219 300.37 143.019 303.73 143.979 307.09C144.939 310.45 145.419 314.65 145.419 319.69V343H133.449V318.79C133.449 313.27 132.609 309.16 130.929 306.46H122.289C123.609 309.04 124.269 312.55 124.269 316.99V343H119.364C116.964 341.38 114.609 339.701 112.299 337.964V318.79C112.299 313.09 111.519 308.98 109.959 306.46H103.029V330.474ZM316.752 337.72C314.338 339.543 311.874 341.304 309.362 343H303.972C300.792 340.06 298.872 336.88 298.212 333.46C297.672 330.58 297.402 327.07 297.402 322.93V306.46H291.192V297.01H297.402V284.5H309.372V297.01H316.752V306.46H309.372V325.81C309.372 329.47 310.002 332.05 311.262 333.55H316.752V337.72ZM334.619 322.16C330.832 325.95 326.868 329.562 322.739 332.982V297.01H334.619V322.16ZM355.356 297.01C351.087 303.332 346.404 309.352 341.347 315.03C341.654 312.252 342.224 309.725 343.058 307.45C344.438 303.85 346.598 300.37 349.538 297.01H355.356ZM162.388 297.01H152.758V356.5H164.728V340.48C166.588 342.16 169.108 343 172.288 343H179.938C185.938 337.3 188.938 329.44 188.938 319.42C188.938 314.74 188.218 310.45 186.778 306.55C185.338 302.65 183.358 299.47 180.838 297.01H172.738C170.398 297.01 168.628 297.25 167.428 297.73C166.288 298.21 165.058 299.05 163.738 300.25L162.388 297.01ZM173.368 333.55H164.728V306.46H173.278C175.558 309.94 176.698 314.38 176.698 319.78C176.698 325.18 175.588 329.77 173.368 333.55ZM221.499 308.17L238.329 343H246.699V280H235.359V304.93L236.349 316L235.899 316.18L219.339 280H210.249V343H221.589V318.97L221.049 308.35L221.499 308.17ZM266.947 322.21H276.577V333.55H267.037C265.717 332.23 265.057 330.4 265.057 328.06C265.057 325.72 265.687 323.77 266.947 322.21ZM279.547 297.01H257.227V306.46H273.427C275.467 307.24 276.487 308.8 276.487 311.14V315.64C274.447 314.2 272.257 313.48 269.917 313.48H261.457C256.237 317.14 253.627 322.15 253.627 328.51C253.627 334.81 256.177 339.64 261.277 343H266.947C271.207 343 274.507 341.92 276.847 339.76L278.467 343H288.727C288.487 338.86 288.367 334.3 288.367 329.32V315.82C288.367 311.02 287.797 307.24 286.657 304.48C285.517 301.66 283.147 299.17 279.547 297.01ZM334.619 280H322.739V292.15H334.619V280Z" fill="black"/>
</svg>
